<mxfile host="app.diagrams.net" modified="2023-02-10T21:48:39.939Z" agent="5.0 (Windows)" etag="-_mTLONU1Q7-a2csZIYT" version="20.7.4" type="github">
  <diagram name="Page-1" id="edf60f1a-56cd-e834-aa8a-f176f3a09ee4">
    <mxGraphModel dx="1434" dy="754" grid="1" gridSize="10" guides="1" tooltips="1" connect="1" arrows="1" fold="1" page="1" pageScale="1" pageWidth="1100" pageHeight="850" background="none" math="0" shadow="0">
      <root>
        <mxCell id="0" />
        <mxCell id="1" parent="0" />
        <mxCell id="7u_-9krjY-BhX5WKlcBc-11" style="edgeStyle=orthogonalEdgeStyle;rounded=0;sketch=0;orthogonalLoop=1;jettySize=auto;html=1;shadow=0;exitX=0.5;exitY=1;exitDx=0;exitDy=0;labelBackgroundColor=none;strokeColor=#E07A5F;fontColor=default;" edge="1" parent="1" source="7u_-9krjY-BhX5WKlcBc-17" target="7u_-9krjY-BhX5WKlcBc-12">
          <mxGeometry relative="1" as="geometry">
            <mxPoint x="390" y="400" as="targetPoint" />
            <mxPoint x="350" y="470" as="sourcePoint" />
          </mxGeometry>
        </mxCell>
        <mxCell id="7u_-9krjY-BhX5WKlcBc-32" style="edgeStyle=orthogonalEdgeStyle;rounded=0;sketch=0;orthogonalLoop=1;jettySize=auto;html=1;exitX=0.5;exitY=1;exitDx=0;exitDy=0;entryX=0.5;entryY=0;entryDx=0;entryDy=0;shadow=0;labelBackgroundColor=none;strokeColor=#E07A5F;fontColor=default;" edge="1" parent="1" source="7u_-9krjY-BhX5WKlcBc-4" target="7u_-9krjY-BhX5WKlcBc-17">
          <mxGeometry relative="1" as="geometry" />
        </mxCell>
        <mxCell id="7u_-9krjY-BhX5WKlcBc-4" value="&lt;div&gt;Find usable API to source:&lt;/div&gt;&lt;div&gt;- Customer Location&lt;/div&gt;&lt;div&gt;- Product Name&lt;/div&gt;&lt;div&gt;- Bill of Lading #&lt;/div&gt;&lt;div&gt;- Delivery Date&lt;/div&gt;&lt;div&gt;- Tote Number&lt;/div&gt;&lt;div&gt;- Is product returned&lt;br&gt;- Account Number&lt;br&gt;&lt;/div&gt;" style="rounded=0;whiteSpace=wrap;html=1;labelBackgroundColor=none;fillColor=#f8cecc;strokeColor=#b85450;" vertex="1" parent="1">
          <mxGeometry x="280" y="230" width="200" height="130" as="geometry" />
        </mxCell>
        <mxCell id="7u_-9krjY-BhX5WKlcBc-9" style="edgeStyle=orthogonalEdgeStyle;rounded=0;sketch=0;orthogonalLoop=1;jettySize=auto;html=1;exitX=0.5;exitY=1;exitDx=0;exitDy=0;shadow=0;labelBackgroundColor=none;strokeColor=#E07A5F;fontColor=default;" edge="1" parent="1" source="7u_-9krjY-BhX5WKlcBc-6" target="7u_-9krjY-BhX5WKlcBc-10">
          <mxGeometry relative="1" as="geometry">
            <mxPoint x="655" y="410" as="targetPoint" />
          </mxGeometry>
        </mxCell>
        <mxCell id="7u_-9krjY-BhX5WKlcBc-6" value="Use RPA or Manually download the single report file from Track About" style="rounded=0;whiteSpace=wrap;html=1;labelBackgroundColor=none;fillColor=#f8cecc;strokeColor=#b85450;" vertex="1" parent="1">
          <mxGeometry x="550" y="230" width="210" height="130" as="geometry" />
        </mxCell>
        <mxCell id="7u_-9krjY-BhX5WKlcBc-89" style="edgeStyle=orthogonalEdgeStyle;rounded=0;orthogonalLoop=1;jettySize=auto;html=1;exitX=0.5;exitY=1;exitDx=0;exitDy=0;entryX=0.5;entryY=0;entryDx=0;entryDy=0;strokeColor=#E07A5F;fontColor=#393C56;fillColor=#F2CC8F;" edge="1" parent="1" source="7u_-9krjY-BhX5WKlcBc-10" target="7u_-9krjY-BhX5WKlcBc-85">
          <mxGeometry relative="1" as="geometry" />
        </mxCell>
        <mxCell id="7u_-9krjY-BhX5WKlcBc-10" value="Parse the Report file and gather all needed information for each Tote Letter." style="rounded=0;whiteSpace=wrap;html=1;labelBackgroundColor=none;fillColor=#d5e8d4;strokeColor=#82b366;" vertex="1" parent="1">
          <mxGeometry x="557.5" y="385" width="195" height="80" as="geometry" />
        </mxCell>
        <mxCell id="7u_-9krjY-BhX5WKlcBc-87" style="edgeStyle=orthogonalEdgeStyle;rounded=0;orthogonalLoop=1;jettySize=auto;html=1;exitX=1;exitY=0.5;exitDx=0;exitDy=0;entryX=0;entryY=0.5;entryDx=0;entryDy=0;strokeColor=#E07A5F;fontColor=#393C56;fillColor=#F2CC8F;" edge="1" parent="1" source="7u_-9krjY-BhX5WKlcBc-12" target="7u_-9krjY-BhX5WKlcBc-85">
          <mxGeometry relative="1" as="geometry" />
        </mxCell>
        <mxCell id="7u_-9krjY-BhX5WKlcBc-12" value="Parse the API request to find all products who&#39;s days held is over 90. Need to calculate the days held:&lt;br&gt;(todays date) - (delivery date)" style="rounded=0;whiteSpace=wrap;html=1;labelBackgroundColor=none;fillColor=#d5e8d4;strokeColor=#82b366;" vertex="1" parent="1">
          <mxGeometry x="280" y="500" width="200" height="100" as="geometry" />
        </mxCell>
        <mxCell id="7u_-9krjY-BhX5WKlcBc-98" style="edgeStyle=orthogonalEdgeStyle;rounded=0;orthogonalLoop=1;jettySize=auto;html=1;exitX=0.375;exitY=1;exitDx=0;exitDy=0;strokeColor=#E07A5F;fontColor=#393C56;fillColor=#F2CC8F;" edge="1" parent="1" source="7u_-9krjY-BhX5WKlcBc-16" target="7u_-9krjY-BhX5WKlcBc-4">
          <mxGeometry relative="1" as="geometry" />
        </mxCell>
        <mxCell id="7u_-9krjY-BhX5WKlcBc-99" style="edgeStyle=orthogonalEdgeStyle;rounded=0;orthogonalLoop=1;jettySize=auto;html=1;exitX=0.625;exitY=1;exitDx=0;exitDy=0;entryX=0.5;entryY=0;entryDx=0;entryDy=0;strokeColor=#E07A5F;fontColor=#393C56;fillColor=#F2CC8F;" edge="1" parent="1" source="7u_-9krjY-BhX5WKlcBc-16" target="7u_-9krjY-BhX5WKlcBc-6">
          <mxGeometry relative="1" as="geometry" />
        </mxCell>
        <mxCell id="7u_-9krjY-BhX5WKlcBc-16" value="Can we get a TrackAbout API key?" style="shape=hexagon;perimeter=hexagonPerimeter2;whiteSpace=wrap;html=1;fixedSize=1;labelBackgroundColor=none;fillColor=#f8cecc;strokeColor=#b85450;" vertex="1" parent="1">
          <mxGeometry x="420" y="30" width="180" height="110" as="geometry" />
        </mxCell>
        <mxCell id="7u_-9krjY-BhX5WKlcBc-19" style="edgeStyle=orthogonalEdgeStyle;rounded=0;sketch=0;orthogonalLoop=1;jettySize=auto;html=1;exitX=1;exitY=0.5;exitDx=0;exitDy=0;entryX=0;entryY=0.5;entryDx=0;entryDy=0;shadow=0;startArrow=none;labelBackgroundColor=none;strokeColor=#E07A5F;fontColor=default;" edge="1" parent="1" source="7u_-9krjY-BhX5WKlcBc-33" target="7u_-9krjY-BhX5WKlcBc-10">
          <mxGeometry relative="1" as="geometry" />
        </mxCell>
        <mxCell id="7u_-9krjY-BhX5WKlcBc-17" value="&lt;div&gt;Can we get the&lt;/div&gt;&lt;div&gt;&amp;nbsp;Report from API?&lt;/div&gt;" style="rhombus;whiteSpace=wrap;html=1;labelBackgroundColor=none;fillColor=#f8cecc;strokeColor=#b85450;" vertex="1" parent="1">
          <mxGeometry x="320" y="370" width="120" height="110" as="geometry" />
        </mxCell>
        <mxCell id="7u_-9krjY-BhX5WKlcBc-88" style="edgeStyle=orthogonalEdgeStyle;rounded=0;orthogonalLoop=1;jettySize=auto;html=1;exitX=1;exitY=0.5;exitDx=0;exitDy=0;entryX=0;entryY=0.5;entryDx=0;entryDy=0;strokeColor=#E07A5F;fontColor=#393C56;fillColor=#F2CC8F;" edge="1" parent="1" source="7u_-9krjY-BhX5WKlcBc-20" target="7u_-9krjY-BhX5WKlcBc-24">
          <mxGeometry relative="1" as="geometry" />
        </mxCell>
        <mxCell id="7u_-9krjY-BhX5WKlcBc-20" value="Convert tote information to an XML file" style="rounded=0;whiteSpace=wrap;html=1;labelBackgroundColor=none;fillColor=#dae8fc;strokeColor=#6c8ebf;" vertex="1" parent="1">
          <mxGeometry x="760" y="500" width="135" height="70" as="geometry" />
        </mxCell>
        <mxCell id="7u_-9krjY-BhX5WKlcBc-27" style="edgeStyle=orthogonalEdgeStyle;rounded=0;sketch=0;orthogonalLoop=1;jettySize=auto;html=1;exitX=0.5;exitY=1;exitDx=0;exitDy=0;shadow=0;labelBackgroundColor=none;strokeColor=#E07A5F;fontColor=default;" edge="1" parent="1" source="7u_-9krjY-BhX5WKlcBc-24" target="7u_-9krjY-BhX5WKlcBc-28">
          <mxGeometry relative="1" as="geometry">
            <mxPoint x="850" y="640" as="targetPoint" />
          </mxGeometry>
        </mxCell>
        <mxCell id="7u_-9krjY-BhX5WKlcBc-24" value="Concatenate XML files with like customers into one XML file" style="rounded=0;whiteSpace=wrap;html=1;labelBackgroundColor=none;fillColor=#dae8fc;strokeColor=#6c8ebf;" vertex="1" parent="1">
          <mxGeometry x="930" y="505" width="140" height="60" as="geometry" />
        </mxCell>
        <mxCell id="7u_-9krjY-BhX5WKlcBc-30" style="edgeStyle=orthogonalEdgeStyle;rounded=0;sketch=0;orthogonalLoop=1;jettySize=auto;html=1;exitX=0;exitY=0.5;exitDx=0;exitDy=0;shadow=0;labelBackgroundColor=none;strokeColor=#E07A5F;fontColor=default;" edge="1" parent="1" source="7u_-9krjY-BhX5WKlcBc-28" target="7u_-9krjY-BhX5WKlcBc-31">
          <mxGeometry relative="1" as="geometry">
            <mxPoint x="760" y="710" as="targetPoint" />
          </mxGeometry>
        </mxCell>
        <mxCell id="7u_-9krjY-BhX5WKlcBc-28" value="Transform XML file into an XSL-FO file using an XSLT stylesheet" style="rounded=0;whiteSpace=wrap;html=1;labelBackgroundColor=none;fillColor=#dae8fc;strokeColor=#6c8ebf;" vertex="1" parent="1">
          <mxGeometry x="940" y="680" width="120" height="60" as="geometry" />
        </mxCell>
        <mxCell id="7u_-9krjY-BhX5WKlcBc-38" style="edgeStyle=orthogonalEdgeStyle;rounded=0;sketch=0;orthogonalLoop=1;jettySize=auto;html=1;exitX=0;exitY=0.5;exitDx=0;exitDy=0;entryX=1;entryY=0.5;entryDx=0;entryDy=0;shadow=0;labelBackgroundColor=none;strokeColor=#E07A5F;fontColor=default;" edge="1" parent="1" source="7u_-9krjY-BhX5WKlcBc-31" target="7u_-9krjY-BhX5WKlcBc-40">
          <mxGeometry relative="1" as="geometry">
            <mxPoint x="550" y="710" as="targetPoint" />
          </mxGeometry>
        </mxCell>
        <mxCell id="7u_-9krjY-BhX5WKlcBc-31" value="Render the XSL-FO file using Apache FOP. Log all the totes that were created for this PDF." style="rounded=0;whiteSpace=wrap;html=1;labelBackgroundColor=none;fillColor=#dae8fc;strokeColor=#6c8ebf;" vertex="1" parent="1">
          <mxGeometry x="740" y="680" width="132.5" height="60" as="geometry" />
        </mxCell>
        <mxCell id="7u_-9krjY-BhX5WKlcBc-34" value="No" style="text;html=1;align=center;verticalAlign=middle;resizable=0;points=[];autosize=1;strokeColor=none;fillColor=none;labelBackgroundColor=none;fontColor=#393C56;" vertex="1" parent="1">
          <mxGeometry x="380" y="470" width="40" height="30" as="geometry" />
        </mxCell>
        <mxCell id="7u_-9krjY-BhX5WKlcBc-47" style="edgeStyle=orthogonalEdgeStyle;rounded=0;sketch=0;orthogonalLoop=1;jettySize=auto;html=1;exitX=0;exitY=0.5;exitDx=0;exitDy=0;shadow=0;labelBackgroundColor=none;strokeColor=#E07A5F;fontColor=default;" edge="1" parent="1" source="7u_-9krjY-BhX5WKlcBc-40" target="7u_-9krjY-BhX5WKlcBc-48">
          <mxGeometry relative="1" as="geometry">
            <mxPoint x="430" y="710" as="targetPoint" />
          </mxGeometry>
        </mxCell>
        <mxCell id="7u_-9krjY-BhX5WKlcBc-62" style="edgeStyle=orthogonalEdgeStyle;rounded=0;sketch=0;orthogonalLoop=1;jettySize=auto;html=1;exitX=0.5;exitY=1;exitDx=0;exitDy=0;entryX=0.5;entryY=0;entryDx=0;entryDy=0;shadow=0;labelBackgroundColor=none;strokeColor=#E07A5F;fontColor=default;" edge="1" parent="1" source="7u_-9krjY-BhX5WKlcBc-40" target="7u_-9krjY-BhX5WKlcBc-57">
          <mxGeometry relative="1" as="geometry" />
        </mxCell>
        <mxCell id="7u_-9krjY-BhX5WKlcBc-40" value="Connect with&lt;br&gt;NetSuite?" style="rhombus;whiteSpace=wrap;html=1;labelBackgroundColor=none;fillColor=#e1d5e7;strokeColor=#9673a6;" vertex="1" parent="1">
          <mxGeometry x="457.5" y="660" width="100" height="100" as="geometry" />
        </mxCell>
        <mxCell id="7u_-9krjY-BhX5WKlcBc-45" value="END" style="ellipse;whiteSpace=wrap;html=1;labelBackgroundColor=none;fillColor=#F2CC8F;strokeColor=#E07A5F;fontColor=#393C56;" vertex="1" parent="1">
          <mxGeometry x="970" y="780" width="120" height="50" as="geometry" />
        </mxCell>
        <mxCell id="7u_-9krjY-BhX5WKlcBc-49" style="edgeStyle=orthogonalEdgeStyle;rounded=0;sketch=0;orthogonalLoop=1;jettySize=auto;html=1;exitX=0;exitY=0.5;exitDx=0;exitDy=0;shadow=0;labelBackgroundColor=none;strokeColor=#E07A5F;fontColor=default;" edge="1" parent="1" source="7u_-9krjY-BhX5WKlcBc-48" target="7u_-9krjY-BhX5WKlcBc-50">
          <mxGeometry relative="1" as="geometry">
            <mxPoint x="260" y="710" as="targetPoint" />
          </mxGeometry>
        </mxCell>
        <mxCell id="7u_-9krjY-BhX5WKlcBc-48" value="Setup a SOAP API Integration on NetSuite." style="rounded=0;whiteSpace=wrap;html=1;labelBackgroundColor=none;fillColor=#e1d5e7;strokeColor=#9673a6;" vertex="1" parent="1">
          <mxGeometry x="310" y="680" width="120" height="60" as="geometry" />
        </mxCell>
        <mxCell id="7u_-9krjY-BhX5WKlcBc-52" style="edgeStyle=orthogonalEdgeStyle;rounded=0;sketch=0;orthogonalLoop=1;jettySize=auto;html=1;exitX=0.5;exitY=1;exitDx=0;exitDy=0;shadow=0;labelBackgroundColor=none;strokeColor=#E07A5F;fontColor=default;" edge="1" parent="1" source="7u_-9krjY-BhX5WKlcBc-50" target="7u_-9krjY-BhX5WKlcBc-53">
          <mxGeometry relative="1" as="geometry">
            <mxPoint x="200" y="770" as="targetPoint" />
          </mxGeometry>
        </mxCell>
        <mxCell id="7u_-9krjY-BhX5WKlcBc-50" value="Lookup Sales order using the Bill of Lading number. Parse this to get the RAMs name and ID." style="rounded=0;whiteSpace=wrap;html=1;labelBackgroundColor=none;fillColor=#e1d5e7;strokeColor=#9673a6;" vertex="1" parent="1">
          <mxGeometry x="130" y="675" width="140" height="70" as="geometry" />
        </mxCell>
        <mxCell id="7u_-9krjY-BhX5WKlcBc-63" style="edgeStyle=orthogonalEdgeStyle;rounded=0;sketch=0;orthogonalLoop=1;jettySize=auto;html=1;exitX=1;exitY=0.5;exitDx=0;exitDy=0;entryX=0;entryY=0.5;entryDx=0;entryDy=0;shadow=0;labelBackgroundColor=none;strokeColor=#E07A5F;fontColor=default;" edge="1" parent="1" source="7u_-9krjY-BhX5WKlcBc-53" target="7u_-9krjY-BhX5WKlcBc-57">
          <mxGeometry relative="1" as="geometry" />
        </mxCell>
        <mxCell id="7u_-9krjY-BhX5WKlcBc-53" value="Create a SOAP Post request to add a Task to the RAM attaching the PDF." style="rounded=0;whiteSpace=wrap;html=1;labelBackgroundColor=none;fillColor=#e1d5e7;strokeColor=#9673a6;" vertex="1" parent="1">
          <mxGeometry x="140" y="775" width="120" height="60" as="geometry" />
        </mxCell>
        <mxCell id="7u_-9krjY-BhX5WKlcBc-59" style="edgeStyle=orthogonalEdgeStyle;rounded=0;sketch=0;orthogonalLoop=1;jettySize=auto;html=1;exitX=1;exitY=0.5;exitDx=0;exitDy=0;shadow=0;labelBackgroundColor=none;strokeColor=#E07A5F;fontColor=default;" edge="1" parent="1" source="7u_-9krjY-BhX5WKlcBc-57" target="7u_-9krjY-BhX5WKlcBc-60">
          <mxGeometry relative="1" as="geometry">
            <mxPoint x="690" y="805" as="targetPoint" />
          </mxGeometry>
        </mxCell>
        <mxCell id="7u_-9krjY-BhX5WKlcBc-57" value="Create documentation for using the software, updating the software if needed (ie: Accounting technician name change), and documenting how the software works." style="rounded=0;whiteSpace=wrap;html=1;labelBackgroundColor=none;fillColor=#F2CC8F;strokeColor=#E07A5F;fontColor=#393C56;" vertex="1" parent="1">
          <mxGeometry x="355" y="775" width="310" height="60" as="geometry" />
        </mxCell>
        <mxCell id="7u_-9krjY-BhX5WKlcBc-61" style="edgeStyle=orthogonalEdgeStyle;rounded=0;sketch=0;orthogonalLoop=1;jettySize=auto;html=1;exitX=1;exitY=0.5;exitDx=0;exitDy=0;entryX=0;entryY=0.5;entryDx=0;entryDy=0;shadow=0;labelBackgroundColor=none;strokeColor=#E07A5F;fontColor=default;" edge="1" parent="1" source="7u_-9krjY-BhX5WKlcBc-60" target="7u_-9krjY-BhX5WKlcBc-45">
          <mxGeometry relative="1" as="geometry" />
        </mxCell>
        <mxCell id="7u_-9krjY-BhX5WKlcBc-60" value="Initially test internally, then use the IS team and accounting team to stress test the software for bugs." style="rounded=0;whiteSpace=wrap;html=1;labelBackgroundColor=none;fillColor=#F2CC8F;strokeColor=#E07A5F;fontColor=#393C56;" vertex="1" parent="1">
          <mxGeometry x="710" y="775" width="220" height="60" as="geometry" />
        </mxCell>
        <mxCell id="7u_-9krjY-BhX5WKlcBc-33" value="Yes" style="text;html=1;align=center;verticalAlign=middle;resizable=0;points=[];autosize=1;strokeColor=none;fillColor=none;labelBackgroundColor=none;fontColor=#393C56;" vertex="1" parent="1">
          <mxGeometry x="480" y="410" width="40" height="30" as="geometry" />
        </mxCell>
        <mxCell id="7u_-9krjY-BhX5WKlcBc-79" value="" style="edgeStyle=orthogonalEdgeStyle;rounded=0;sketch=0;orthogonalLoop=1;jettySize=auto;html=1;exitX=1;exitY=0.5;exitDx=0;exitDy=0;entryX=0;entryY=0.5;entryDx=0;entryDy=0;shadow=0;endArrow=none;labelBackgroundColor=none;strokeColor=#E07A5F;fontColor=default;" edge="1" parent="1" source="7u_-9krjY-BhX5WKlcBc-17" target="7u_-9krjY-BhX5WKlcBc-33">
          <mxGeometry relative="1" as="geometry">
            <mxPoint x="440" y="425" as="sourcePoint" />
            <mxPoint x="557.5" y="425" as="targetPoint" />
          </mxGeometry>
        </mxCell>
        <mxCell id="7u_-9krjY-BhX5WKlcBc-86" style="edgeStyle=orthogonalEdgeStyle;rounded=0;orthogonalLoop=1;jettySize=auto;html=1;exitX=1;exitY=0.5;exitDx=0;exitDy=0;entryX=0;entryY=0.5;entryDx=0;entryDy=0;strokeColor=#E07A5F;fontColor=#393C56;fillColor=#F2CC8F;" edge="1" parent="1" source="7u_-9krjY-BhX5WKlcBc-85" target="7u_-9krjY-BhX5WKlcBc-20">
          <mxGeometry relative="1" as="geometry" />
        </mxCell>
        <mxCell id="7u_-9krjY-BhX5WKlcBc-92" style="edgeStyle=orthogonalEdgeStyle;rounded=0;orthogonalLoop=1;jettySize=auto;html=1;exitX=0.5;exitY=1;exitDx=0;exitDy=0;entryX=0.5;entryY=0;entryDx=0;entryDy=0;strokeColor=#E07A5F;fontColor=#393C56;fillColor=#F2CC8F;" edge="1" parent="1" source="7u_-9krjY-BhX5WKlcBc-85" target="7u_-9krjY-BhX5WKlcBc-91">
          <mxGeometry relative="1" as="geometry" />
        </mxCell>
        <mxCell id="7u_-9krjY-BhX5WKlcBc-85" value="Java or JavaScript?" style="rhombus;whiteSpace=wrap;html=1;strokeColor=#82b366;fillColor=#d5e8d4;" vertex="1" parent="1">
          <mxGeometry x="605" y="490" width="100" height="90" as="geometry" />
        </mxCell>
        <mxCell id="7u_-9krjY-BhX5WKlcBc-93" style="edgeStyle=orthogonalEdgeStyle;rounded=0;orthogonalLoop=1;jettySize=auto;html=1;exitX=0;exitY=0.5;exitDx=0;exitDy=0;entryX=0.5;entryY=0;entryDx=0;entryDy=0;strokeColor=#E07A5F;fontColor=#393C56;fillColor=#F2CC8F;" edge="1" parent="1" source="7u_-9krjY-BhX5WKlcBc-91" target="7u_-9krjY-BhX5WKlcBc-40">
          <mxGeometry relative="1" as="geometry" />
        </mxCell>
        <mxCell id="7u_-9krjY-BhX5WKlcBc-91" value="Use PDFmake tool to help generate the PDF. Could use NodeJS as the back-end." style="rounded=0;whiteSpace=wrap;html=1;strokeColor=#6c8ebf;fillColor=#dae8fc;" vertex="1" parent="1">
          <mxGeometry x="572.5" y="600" width="165" height="60" as="geometry" />
        </mxCell>
        <mxCell id="7u_-9krjY-BhX5WKlcBc-94" value="Java" style="text;html=1;align=center;verticalAlign=middle;resizable=0;points=[];autosize=1;strokeColor=none;fillColor=none;fontColor=#393C56;" vertex="1" parent="1">
          <mxGeometry x="700" y="505" width="50" height="30" as="geometry" />
        </mxCell>
        <mxCell id="7u_-9krjY-BhX5WKlcBc-95" value="JavaScript" style="text;html=1;align=center;verticalAlign=middle;resizable=0;points=[];autosize=1;strokeColor=none;fillColor=none;fontColor=#393C56;" vertex="1" parent="1">
          <mxGeometry x="650" y="570" width="80" height="30" as="geometry" />
        </mxCell>
        <mxCell id="7u_-9krjY-BhX5WKlcBc-96" value="No" style="text;html=1;align=center;verticalAlign=middle;resizable=0;points=[];autosize=1;strokeColor=none;fillColor=none;fontColor=#393C56;" vertex="1" parent="1">
          <mxGeometry x="500" y="745" width="40" height="30" as="geometry" />
        </mxCell>
        <mxCell id="7u_-9krjY-BhX5WKlcBc-97" value="Yes" style="text;html=1;align=center;verticalAlign=middle;resizable=0;points=[];autosize=1;strokeColor=none;fillColor=none;fontColor=#393C56;" vertex="1" parent="1">
          <mxGeometry x="430" y="680" width="40" height="30" as="geometry" />
        </mxCell>
        <mxCell id="7u_-9krjY-BhX5WKlcBc-100" value="No" style="text;html=1;align=center;verticalAlign=middle;resizable=0;points=[];autosize=1;strokeColor=none;fillColor=none;fontColor=#393C56;" vertex="1" parent="1">
          <mxGeometry x="530" y="145" width="40" height="30" as="geometry" />
        </mxCell>
        <mxCell id="7u_-9krjY-BhX5WKlcBc-101" value="Yes" style="text;html=1;align=center;verticalAlign=middle;resizable=0;points=[];autosize=1;strokeColor=none;fillColor=none;fontColor=#393C56;" vertex="1" parent="1">
          <mxGeometry x="440" y="145" width="40" height="30" as="geometry" />
        </mxCell>
        <mxCell id="7u_-9krjY-BhX5WKlcBc-103" value="TrackAbout&lt;br&gt;(5-10 hours)" style="shape=process;whiteSpace=wrap;html=1;backgroundOutline=1;strokeColor=#b85450;fillColor=#f8cecc;" vertex="1" parent="1">
          <mxGeometry x="40" y="80" width="120" height="60" as="geometry" />
        </mxCell>
        <mxCell id="7u_-9krjY-BhX5WKlcBc-104" value="Process Info from TrackAbout&lt;br&gt;(10-15 hours)" style="shape=process;whiteSpace=wrap;html=1;backgroundOutline=1;strokeColor=#82b366;fillColor=#d5e8d4;" vertex="1" parent="1">
          <mxGeometry x="40" y="160" width="120" height="60" as="geometry" />
        </mxCell>
        <mxCell id="7u_-9krjY-BhX5WKlcBc-105" value="Render PDF&lt;br&gt;(15-20 hours)" style="shape=process;whiteSpace=wrap;html=1;backgroundOutline=1;strokeColor=#6c8ebf;fillColor=#dae8fc;" vertex="1" parent="1">
          <mxGeometry x="40" y="240" width="120" height="60" as="geometry" />
        </mxCell>
        <mxCell id="7u_-9krjY-BhX5WKlcBc-106" value="Upload PDF to NetSuite&lt;br&gt;(15-20 hours)" style="shape=process;whiteSpace=wrap;html=1;backgroundOutline=1;strokeColor=#9673a6;fillColor=#e1d5e7;" vertex="1" parent="1">
          <mxGeometry x="40" y="325" width="120" height="60" as="geometry" />
        </mxCell>
        <mxCell id="7u_-9krjY-BhX5WKlcBc-107" value="&lt;div&gt;Documentation&lt;/div&gt;&lt;div&gt;/Testing&lt;br&gt;(10-15 hours)&lt;br&gt;&lt;/div&gt;" style="shape=process;whiteSpace=wrap;html=1;backgroundOutline=1;labelBackgroundColor=none;strokeColor=#E07A5F;fontColor=#393C56;fillColor=#F2CC8F;" vertex="1" parent="1">
          <mxGeometry x="40" y="410" width="120" height="60" as="geometry" />
        </mxCell>
        <mxCell id="7u_-9krjY-BhX5WKlcBc-108" value="&lt;div&gt;Total Estimated Time:&lt;/div&gt;&lt;div&gt;55-80 hours&lt;br&gt;&lt;/div&gt;" style="shape=process;whiteSpace=wrap;html=1;backgroundOutline=1;labelBackgroundColor=none;strokeColor=#314354;fontColor=#ffffff;fillColor=#647687;" vertex="1" parent="1">
          <mxGeometry x="10" y="10" width="180" height="60" as="geometry" />
        </mxCell>
      </root>
    </mxGraphModel>
  </diagram>
</mxfile>
